<svg width="18" height="12" viewBox="0 0 18 12" fill="none" xmlns="http://www.w3.org/2000/svg">
<path fill-rule="evenodd" clip-rule="evenodd" d="M17.0484 0.351603C17.2734 0.576637 17.3997 0.881806 17.3997 1.2C17.3997 1.5182 17.2734 1.82337 17.0484 2.0484L7.4484 11.6484C7.22337 11.8734 6.9182 11.9997 6.6 11.9997C6.2818 11.9997 5.97663 11.8734 5.7516 11.6484L0.9516 6.8484C0.733011 6.62208 0.612057 6.31896 0.614791 6.00432C0.617526 5.68969 0.743728 5.38871 0.966218 5.16622C1.18871 4.94373 1.48968 4.81753 1.80432 4.8148C2.11895 4.81206 2.42208 4.93301 2.6484 5.1516L6.6 9.1032L15.3516 0.351603C15.5766 0.126638 15.8818 0.000259399 16.2 0.000259399C16.5182 0.000259399 16.8234 0.126638 17.0484 0.351603Z" fill="#18E044"/>
</svg>
